<svg xmlns="http://www.w3.org/2000/svg" version="1.1" xmlns:xlink="http://www.w3.org/1999/xlink" xmlns:svgjs="http://svgjs.dev/svgjs" width="1500" height="935" viewBox="0 0 1500 935"><g transform="matrix(1,0,0,1,-0.9090909090909918,163.93839590234336)"><svg viewBox="0 0 396 247" data-background-color="#565656" preserveAspectRatio="xMidYMid meet" height="935" width="1500" xmlns="http://www.w3.org/2000/svg" xmlns:xlink="http://www.w3.org/1999/xlink"><g id="tight-bounds" transform="matrix(1,0,0,1,0.2400000000000091,-0.09999999999999432)"><svg viewBox="0 0 395.52 247.2" height="247.2" width="395.52"><g><svg></svg></g><g><svg viewBox="0 0 395.52 247.2" height="247.2" width="395.52"><g transform="matrix(1,0,0,1,75.54432,70.28141944099993)"><svg viewBox="0 0 244.43135999999998 106.63716111800014" height="106.63716111800014" width="244.43135999999998"><g><svg viewBox="0 0 244.43135999999998 106.63716111800014" height="106.63716111800014" width="244.43135999999998"><g><svg viewBox="0 0 244.43135999999998 106.63716111800014" height="106.63716111800014" width="244.43135999999998"><g id="textblocktransform"><svg viewBox="0 0 244.43135999999998 106.63716111800014" height="106.63716111800014" width="244.43135999999998" id="textblock"><g><rect width="244.43135999999998" height="77.05177945784928" fill="none" stroke-width="5.573187777599999" stroke="#374151" data-fill-palette-color="none" data-stroke-palette-color="tertiary"></rect><rect width="244.43135999999998" height="29.58538166015085" y="77.05177945784928" fill="#374151" data-fill-palette-color="tertiary"></rect></g><g><svg viewBox="0 0 244.43135999999998 77.05177945784928" height="77.05177945784928" width="244.43135999999998"><g transform="matrix(1,0,0,1,14.5894968,14.5894968)"><svg width="215.25236639999997" viewBox="4.31 -31.61 144.19219298245613 32.07" height="47.87278585784927" data-palette-color="#6fb5de"><path d="M22.41 0L6.32 0Q5 0 4.48-1.15L4.48-1.15Q4.31-1.49 4.31-1.9L4.31-1.9 4.31-29.48Q4.31-30.8 5.52-31.21L5.52-31.21Q5.86-31.26 6.44-31.32 7.01-31.38 7.59-30.92 8.16-30.46 8.16-29.48L8.16-29.48 8.16-3.22 22.41-3.22Q23.28-3.22 23.65-2.73 24.02-2.24 24.02-1.64 24.02-1.03 23.62-0.52 23.22 0 22.41 0L22.41 0ZM32.78-20.2Q32.24-17.82 32.24-15.55 32.24-13.28 32.78-10.86 33.33-8.45 34.65-6.64 35.97-4.83 37.93-3.74 39.88-2.64 42.7-2.64 45.51-2.64 47.53-3.74 49.54-4.83 50.8-6.64 52.07-8.45 52.67-10.86 53.27-13.28 53.27-15.55 53.27-17.82 52.67-20.2 52.07-22.59 50.8-24.4 49.54-26.21 47.53-27.3 45.51-28.39 42.7-28.39 39.88-28.39 37.93-27.3 35.97-26.21 34.65-24.4 33.33-22.59 32.78-20.2ZM27.93-15.63L27.93-15.63Q27.93-18.97 28.91-21.95 29.88-24.94 31.84-27.07L31.84-27.07Q35.74-31.55 42.64-31.61L42.64-31.61Q49.65-31.61 53.62-27.07L53.62-27.07Q55.51-24.94 56.46-21.95 57.41-18.97 57.41-15.63L57.41-15.63Q57.41-12.24 56.46-9.17 55.51-6.09 53.62-4.02L53.62-4.02Q49.65 0.46 42.64 0.46L42.64 0.46Q35.69 0.46 31.84-4.02L31.84-4.02Q29.88-6.21 28.91-9.22 27.93-12.24 27.93-15.63ZM79.94-15.98L79.94-15.98 79.82-15.98Q78.33-12.53 74.31-11.72L74.31-11.72Q73.1-11.38 71.35-11.38 69.59-11.38 67.75-12.13 65.91-12.87 64.68-14.14 63.44-15.4 62.78-17.24 62.12-19.08 62.12-21.26 62.12-23.45 62.81-25.34 63.5-27.24 64.82-28.62L64.82-28.62Q67.75-31.55 72.41-31.61L72.41-31.61Q80.4-31.61 82.93-24.31L82.93-24.31Q83.85-21.38 83.85-18.28 83.85-15.17 83.67-13.28 83.5-11.38 83.04-9.37 82.58-7.36 81.66-5.52 80.74-3.68 79.36-2.41L79.36-2.41Q76.49 0.46 71.2 0.46L71.2 0.46Q67.41 0.46 64.48-1.15L64.48-1.15Q63.79-1.49 63.85-2.24L63.85-2.24Q63.85-3.45 64.77-3.97L64.77-3.97Q65-4.14 65.22-4.08 65.45-4.02 66.37-3.68L66.37-3.68Q68.67-2.76 70.97-2.76 73.27-2.76 74.59-3.36 75.91-3.97 76.89-4.91 77.87-5.86 78.41-7.24 78.96-8.62 79.31-10.17L79.31-10.17Q79.94-12.76 79.94-15.98ZM72.7-28.51L72.7-28.51Q71.09-28.51 69.85-27.99 68.62-27.47 67.87-26.55L67.87-26.55Q66.14-24.66 66.03-21.49L66.03-21.49Q66.03-16.44 69.36-14.71L69.36-14.71Q70.63-14.14 72.29-14.14 73.96-14.14 75.28-14.71 76.6-15.29 77.58-16.21L77.58-16.21Q79.36-18.28 79.36-21.61L79.36-21.61Q79.36-24.6 77.52-26.44L77.52-26.44Q75.57-28.51 72.7-28.51ZM89.88-10.92L89.88-29.48Q89.88-30.34 90.34-30.69L90.34-30.69Q91.08-31.38 91.86-31.38 92.64-31.38 93.24-30.92 93.84-30.46 93.84-29.48L93.84-29.48 93.84-10.92Q93.84-7.01 96.43-4.71L96.43-4.71Q98.73-2.76 102.12-2.76L102.12-2.76Q105.57-2.76 107.81-4.71L107.81-4.71Q110.39-6.9 110.39-10.92L110.39-10.92 110.39-29.48Q110.39-30.34 110.91-30.69L110.91-30.69Q111.6-31.38 112.38-31.38 113.15-31.38 113.76-30.92 114.36-30.46 114.36-29.48L114.36-29.48 114.36-10.92Q114.36-5.4 110.68-2.24L110.68-2.24Q107.35 0.52 102.12 0.46L102.12 0.46Q96.95 0.46 93.56-2.24L93.56-2.24Q89.88-5.4 89.88-10.92L89.88-10.92ZM131.83 0L124.24 0Q123.04 0 122.4-1.15L122.4-1.15Q122.29-1.49 122.35-1.9L122.35-1.9 122.35-29.43Q122.35-30.57 123.44-31.21L123.44-31.21Q123.78-31.38 124.24-31.38L124.24-31.38 131.71-31.38Q144.07-31.38 147.46-22.41L147.46-22.41Q148.55-19.48 148.5-15.63L148.5-15.63Q148.5-7.93 144.13-3.97L144.13-3.97Q139.76 0 131.83 0L131.83 0ZM126.2-28.28L126.2-2.99 132.29-2.99Q141.48-2.99 143.67-10.46L143.67-10.46Q144.36-12.76 144.36-15.8 144.36-18.85 143.44-21.26 142.52-23.68 140.79-25.29L140.79-25.29Q137.52-28.28 131.14-28.28L131.14-28.28 126.2-28.28Z" opacity="1" transform="matrix(1,0,0,1,0,0)" fill="#6fb5de" class="wordmark-text-0" data-fill-palette-color="primary" id="text-0"></path></svg></g></svg></g></svg></g></svg></g><g></g></svg></g></svg></g><g><path d="M91.634 62.987A122.216 122.216 0 0 1 303.886 62.987L301.099 62.987A119.429 119.429 0 0 0 94.421 62.987L91.634 62.987M91.634 184.213A122.216 122.216 0 0 0 303.886 184.213L301.099 184.213A119.429 119.429 0 0 1 94.421 184.213L91.634 184.213" fill="#374151" stroke="transparent" data-fill-palette-color="tertiary"></path></g></svg></g><defs></defs></svg><rect width="395.52" height="247.2" fill="none" stroke="none" visibility="hidden"></rect></g></svg></g></svg>